 http://www.imdb.com/title/tt0106582/

Source: Cliffhanger.1993.720p.BluRay.x264.DTS-KiNGS Thanks!

Subs: Arabic, Dutch, English, Farsi, Finnish, Hebrew, Hungarian, Norwegian, Polish, Portuguese, Romanian, Serbian, Slovenian, Spanish, Swedish, Turkish and Vietnamese.

Sample and Screens included.

General
Complete name                    : Cliffhanger-720p MP4 AAC x264 BRRip 1993-CC.mp4
Format                           : MPEG-4
Format profile                   : Base Media
Codec ID                         : isom
File size                        : 2.31 GiB
Duration                         : 1h 53mn
Overall bit rate                 : 2 924 Kbps
Encoded date                     : UTC 2012-08-05 15:57:29

Video
ID                               : 1
Format                           : AVC
Format/Info                      : Advanced Video Codec
Format profile                   : High@L3.1
Format settings, CABAC           : Yes
Format settings, ReFrames        : 5 frames
Codec ID                         : avc1
Codec ID/Info                    : Advanced Video Coding
Duration                         : 1h 53mn
Bit rate mode                    : Variable
Bit rate                         : 2 536 Kbps
Nominal bit rate                 : 2 568 Kbps
Maximum bit rate                 : 13.1 Mbps
Width                            : 1 280 pixels
Height                           : 528 pixels
Display aspect ratio             : 2.40:1
Frame rate mode                  : Variable
Frame rate                       : 23.976 fps
Minimum frame rate               : 13.605 fps
Maximum frame rate               : 24.390 fps
Resolution                       : 24 bits
Colorimetry                      : 4:2:0
Scan type                        : Progressive
Bits/(Pixel*Frame)               : 0.156
Stream size                      : 2.00 GiB (87%)
Writing library                  : x264 core 112

Audio
ID                               : 2
Format                           : AAC
Format/Info                      : Advanced Audio Codec
Format version                   : Version 4
Format profile                   : LC
Format settings, SBR             : No
Codec ID                         : 40
Duration                         : 1h 53mn
Bit rate mode                    : Variable
Bit rate                         : 384 Kbps
Maximum bit rate                 : 732 Kbps
Channel(s)                       : 6 channels
Channel positions                : Front: L C R, Rear: L R, LFE
Sampling rate                    : 48.0 KHz
Resolution                       : 16 bits
Stream size                      : 310 MiB (13%)
Language                         : English

Enjoy...

Requested by Clair.

Coming up soon: The Manchurian Candidate, The Recruit, The Bourne Trilogy and more...